<?xml version="1.0" encoding="UTF-8"?>
<svg id="Layer_2" data-name="Layer 2" xmlns="http://www.w3.org/2000/svg" xmlns:xlink="http://www.w3.org/1999/xlink" viewBox="0 0 399.06 361.36">
  <defs>
    <style>
      .cls-1 {
        stroke: #c9c9c9;
        stroke-width: 6px;
      }

      .cls-1, .cls-2, .cls-3 {
        stroke-miterlimit: 10;
      }

      .cls-1, .cls-4, .cls-3 {
        fill: none;
      }

      .cls-5 {
        fill: #020100;
        opacity: .19;
      }

      .cls-5, .cls-6, .cls-7, .cls-8, .cls-9, .cls-10, .cls-11, .cls-12, .cls-13, .cls-14, .cls-15, .cls-16, .cls-17, .cls-18, .cls-19, .cls-20 {
        stroke-width: 0px;
      }

      .cls-6 {
        fill: url(#linear-gradient);
      }

      .cls-2 {
        stroke: #fff;
      }

      .cls-2, .cls-4 {
        stroke-width: 9px;
      }

      .cls-2, .cls-4, .cls-3 {
        stroke-linecap: round;
      }

      .cls-2, .cls-17 {
        fill: #fff;
      }

      .cls-4 {
        stroke: #ffd6c0;
        stroke-linejoin: round;
      }

      .cls-7 {
        fill: url(#linear-gradient-2);
      }

      .cls-3 {
        stroke: #050706;
        stroke-width: 5px;
      }

      .cls-9 {
        fill: #fc2d5b;
      }

      .cls-10 {
        fill: #4952c3;
      }

      .cls-11 {
        fill: #70efa4;
      }

      .cls-12 {
        fill: #89030d;
      }

      .cls-13 {
        fill: #a50004;
      }

      .cls-14 {
        fill: #2bd875;
      }

      .cls-15 {
        fill: #a4a4a5;
      }

      .cls-16 {
        fill: #33429b;
      }

      .cls-18 {
        fill: #efefef;
      }

      .cls-19 {
        fill: #fcab79;
      }

      .cls-20 {
        fill: #f4f4f4;
      }
    </style>
    <linearGradient id="linear-gradient" x1="309.19" y1="96.55" x2="74.89" y2="355.9" gradientUnits="userSpaceOnUse">
      <stop offset="0" stop-color="#94d9f8"/>
      <stop offset=".04" stop-color="#75cade"/>
      <stop offset=".09" stop-color="#4bb6ba"/>
      <stop offset=".15" stop-color="#2aa79e"/>
      <stop offset=".2" stop-color="#139c8a"/>
      <stop offset=".25" stop-color="#04957e"/>
      <stop offset=".29" stop-color="#00937a"/>
    </linearGradient>
    <linearGradient id="linear-gradient-2" x1="160.4" y1="225.6" x2="159.05" y2="77.59" gradientUnits="userSpaceOnUse">
      <stop offset=".76" stop-color="#fff"/>
      <stop offset=".77" stop-color="#f1f0f1"/>
      <stop offset=".82" stop-color="#aba9ab"/>
      <stop offset=".87" stop-color="#737174"/>
      <stop offset=".91" stop-color="#4b494d"/>
      <stop offset=".94" stop-color="#333034"/>
      <stop offset=".96" stop-color="#2a272c"/>
    </linearGradient>
  </defs>
  <g id="STUDENT_LAYER" data-name="STUDENT LAYER">
    <path class="cls-6" d="M368.75,281.3c-18.75,24.41-44.7,46.58-73.41,60.44-2.67,1.3-5.37,2.52-8.09,3.66-25.52,10.73-46.64,11.73-88.88,13.74-83.83,3.98-127.4,6.05-160.78-25.05C-.88,298.24-8.89,234.08,9.31,187.4c9.57-24.52,23.95-38.02,50.1-62.57,41.23-38.7,92.69-87,144.62-77.56,34.27,6.24,31.5,30.86,95.33,76.76,61.66,44.33,85.87,36.9,96.15,63.37,10.11,26.02-2.14,61.89-26.76,93.9Z"/>
    <path class="cls-5" d="M368.75,281.3c-8,10.37-18.79,22.41-32.97,34.18-9.08,7.53-17.91,13.59-25.94,18.45-19.86,1.23-42.91,1.33-68.4-1-20.44-1.87-38.96-4.98-55.29-8.57-5.4,1.31-13.02,2.78-22.22,3.26-41.83,2.21-85.26-17.5-84.22-30.46.54-6.78,13.31-11.07,21.78-13.44,64.88-18.17,217.26-6.65,267.26-2.43Z"/>
    <g>
      <polygon class="cls-10" points="217.3 37.98 217.3 38.18 217.1 37.98 217.3 37.98"/>
      <polygon class="cls-10" points="217.35 38.23 217.3 38.27 217.3 38.18 217.35 38.23"/>
      <g>
        <ellipse class="cls-7" cx="159.15" cy="88.34" rx="75.92" ry="11.84"/>
        <path class="cls-20" d="M221.49,282.41c-.58,6.95-3.81,13.43-9.07,18.01-9.42,8.22-26.39,14.72-49.69,15.71-26.76,1.13-46.28-7.15-56.74-16.29-5.33-4.66-8.56-11.26-9.07-18.33-4.57-64.1-9.13-128.21-13.7-192.31,16.61,6.42,44.23,14.73,79.15,14.48,32.89-.23,59.04-7.96,75.28-14.16-5.39,64.29-10.78,128.59-16.17,192.88Z"/>
        <ellipse class="cls-1" cx="160.45" cy="88.34" rx="77.22" ry="13.71"/>
        <g>
          <polygon class="cls-18" points="135.07 122.91 134.99 122.87 135.06 122.86 135.07 122.91"/>
          <polygon class="cls-18" points="126.13 97.49 126.13 97.46 125.39 91.04 124.29 81.53 122.46 65.78 121.36 56.28 119.54 40.53 118.44 31.02 118.24 29.33 112.2 26.12 103.59 21.54 94.27 16.58 85.66 12.01 84.64 11.46 90.73 0 94.38 1.94 103 6.52 112.3 11.48 120.91 16.06 130.27 21.03 130.34 21.08 131.15 28.1 132.25 37.59 134.08 53.35 135.18 62.86 137 78.6 138.1 88.11 139.28 98.29 139.3 98.44 126.13 97.49"/>
          <polygon class="cls-8" points="135.07 122.91 134.99 122.87 135.06 122.86 135.07 122.91"/>
          <polygon class="cls-14" points="143.96 138.62 143.95 138.62 142.97 130.12 143.96 138.62"/>
          <polygon class="cls-14" points="137 78.6 138.1 88.11 125.39 91.04 124.29 81.53 137 78.6"/>
          <polygon class="cls-14" points="134.08 53.35 135.18 62.86 122.46 65.78 121.36 56.28 134.08 53.35"/>
          <polygon class="cls-14" points="131.15 28.1 132.25 37.59 119.54 40.53 118.44 31.02 131.15 28.1"/>
          <polygon class="cls-14" points="120.91 16.06 112.2 26.12 103.59 21.54 112.3 11.48 120.91 16.06"/>
          <polygon class="cls-14" points="102.99 6.52 94.27 16.58 85.66 12.01 94.38 1.94 102.99 6.52"/>
        </g>
        <polygon class="cls-16" points="135.07 121.91 134.99 121.87 135.06 121.86 135.07 121.91"/>
        <path class="cls-15" d="M136.27,72.31c.23,1.99.46,3.97.69,5.96,1.21-.06,2.42-.12,3.62-.18.03-.93,0-2.08-.23-3.38-.18-.99-.42-1.86-.68-2.59-1.13.06-2.26.13-3.39.19Z"/>
        <line class="cls-2" x1="96.33" y1="123.12" x2="100.19" y2="176.34"/>
        <path class="cls-17" d="M90.05,109.19c0-2.58,2.09-4.67,4.67-4.67s4.67,2.09,4.67,4.67-2.09,4.67-4.67,4.67-4.67-2.09-4.67-4.67Z"/>
        <path class="cls-3" d="M128.27,271.11c2.05,2.17,14.08,14.48,33.55,14.66,19.95.18,32.38-12.53,34.39-14.66"/>
        <path class="cls-8" d="M141.41,231.84c-5.22,0-9.46,4.23-9.46,9.46s4.23,9.46,9.46,9.46,9.46-4.23,9.46-9.46-4.24-9.46-9.46-9.46ZM138.91,240.71c-1.79,0-3.25-1.45-3.25-3.25s1.46-3.25,3.25-3.25,3.26,1.45,3.26,3.25-1.46,3.25-3.26,3.25Z"/>
        <path class="cls-8" d="M187.51,231.26c-5.22,0-9.46,4.23-9.46,9.46s4.23,9.46,9.46,9.46,9.46-4.23,9.46-9.46-4.24-9.46-9.46-9.46ZM185.01,240.13c-1.79,0-3.25-1.45-3.25-3.25s1.46-3.25,3.25-3.25,3.26,1.45,3.26,3.25-1.46,3.25-3.26,3.25Z"/>
      </g>
    </g>
    <g>
      <path class="cls-13" d="M349.69,280.12h-119.92c-6.6,0-13.9-6.94-13.87-19.86,0-2.17,1.96-9.64,5.39-13.07,2.17-2.17,5.17-3.52,8.47-3.52h119.92c6.6,0,13.76,9.59,13.76,17.25,0,12.33-3.72,19.2-13.76,19.2Z"/>
      <path class="cls-12" d="M363.45,261.14c-49.18-.22-98.37-.44-147.55-.66.08-1.35.23-2.82.48-4.38.34-2.1.8-4,1.29-5.65h143.91c.53,1.94,1.01,4.11,1.37,6.48.23,1.48.38,2.88.49,4.22Z"/>
      <path class="cls-19" d="M360.91,253.23c-22.48,1-45.9,1.57-70.2,1.57-24.45,0-48.01-.56-70.62-1.57-.81,0-5.05-.1-8.48-3.52-2.18-2.17-3.52-5.17-3.52-8.48v-10.48c0-13.14,53.37-21.06,81.81-21.12,29-.06,83.01,7.98,83.01,21.12v10.48c0,6.6-5.4,12-12,12Z"/>
      <path class="cls-19" d="M361.04,316.99c-20.48,2.43-43.31,4.08-68.14,4.21-27.37.14-52.37-1.58-74.54-4.21-.6,0-3.73-.07-6.26-2.67-1.61-1.65-2.6-3.93-2.6-6.43v-10.4c0-5.01,3.99-9.1,8.86-9.1h142.69c4.87,0,8.86,4.1,8.86,9.1v10.4c0,5.01-3.99,9.1-8.86,9.1Z"/>
      <path class="cls-11" d="M219.37,287.6c2.58-.44-3.06-.24-3.47,4.99-.54,6.75,11.35,13.28,20.37,11.53s24.18-8.19,28.93-8.19c0,0,27.47,7.85,46.77,5.77,19.3-2.09,20.9-8.84,24.56-9.11,14.25-1.02,16.17,7.56,20.3,7.27,11.28-.81,4.76-11.26,4.76-11.26l-142.22-1Z"/>
      <path class="cls-9" d="M361.59,288.6c-22.27,1.43-45.87,2.28-70.69,2.29-25.13,0-49.01-.84-71.53-2.29v-10.94c22.32,1.53,46.1,2.44,71.18,2.44,25.03,0,48.76-.91,71.04-2.44v10.94Z"/>
      <path class="cls-4" d="M217.47,243.53c-.74-1.54-2.97-6.67-.65-10.71,1.21-2.11,3.18-3.09,4.5-3.68,8.73-3.93,22.79-6.21,27.08-6.87"/>
      <path class="cls-3" d="M273.52,235.2c1.03,1.08,7.04,7.24,16.78,7.33,9.98.09,16.19-6.27,17.19-7.33"/>
      <path class="cls-8" d="M280.09,215.56c-2.61,0-4.73,2.12-4.73,4.73s2.12,4.73,4.73,4.73,4.73-2.12,4.73-4.73-2.12-4.73-4.73-4.73ZM278.84,220c-.89,0-1.62-.73-1.62-1.62s.73-1.62,1.62-1.62,1.63.73,1.63,1.62-.73,1.62-1.63,1.62Z"/>
      <path class="cls-8" d="M303.14,215.27c-2.61,0-4.73,2.12-4.73,4.73s2.12,4.73,4.73,4.73,4.73-2.12,4.73-4.73-2.12-4.73-4.73-4.73ZM301.89,219.71c-.89,0-1.62-.73-1.62-1.62s.73-1.62,1.62-1.62,1.63.73,1.63,1.62-.73,1.62-1.63,1.62Z"/>
    </g>
  </g>
</svg>