<svg width="136" height="62" viewBox="0 0 136 62" fill="none" xmlns="http://www.w3.org/2000/svg">
	<path d="M48.0853 36L0 53.5415H21.5308L18.3008 62L125 49.8605H42.7817L48.0853 36Z" fill="#F9D316"/>
	<path d="M105.691 0C103.375 0 101.302 1.41853 100.491 3.55764L97.9099 10.3699H109.503L96 46H103.375C105.692 46 107.765 44.582 108.575 42.4424L120.73 10.3699H128.219C130.535 10.3699 132.608 8.95139 133.419 6.81228L136 0H105.691Z" fill="white"/>
	<path d="M77.5478 46C79.8823 46 81.9716 44.5821 82.7887 42.4427L85.3905 35.631H62.2793L65.123 28.1868H80.799C83.1335 28.1868 85.2228 26.7689 86.0399 24.6295L88.6417 17.8186H69.0841L71.9296 10.369H91.1573C93.4918 10.369 95.5811 8.95057 96.3982 6.81166L99 0H68.4517C66.1172 0 64.0279 1.4184 63.2108 3.55731L47 46H77.5478Z" fill="white"/>
	<path d="M22.3213 41.1931L27.3547 28.1837H46.83C49.195 28.1837 51.3102 26.766 52.1382 24.6269L59.7571 4.93387C60.6814 2.54571 58.8529 0 56.2126 0H18.7747L21.5615 7.20448C22.2976 9.10656 24.1794 10.3677 26.2822 10.3677H46.195L43.3133 17.8165H23.8989C21.4961 17.8165 19.3457 19.2578 18.5043 21.4318L9 46L22.3195 41.1944L22.3213 41.1931Z" fill="white"/>
</svg>